<?xml version="1.0" encoding="iso-8859-1"?>
<!-- Generator: Adobe Illustrator 21.0.0, SVG Export Plug-In . SVG Version: 6.00 Build 0)  -->
<svg xmlns="http://www.w3.org/2000/svg" xmlns:xlink="http://www.w3.org/1999/xlink" version="1.1" id="Capa_1" x="0px" y="0px" viewBox="0 0 512.002 512.002" style="enable-background:new 0 0 512.002 512.002;" xml:space="preserve" width="512px" height="512px">
<g>
	<g>
		<path d="M446.001,453.722v-108.52c11.639-4.128,20-15.243,20-28.28s-8.361-24.152-20-28.28v-44.084    c0-2.652-1.054-5.196-2.929-7.071c-24.691-24.691-53.568-43.987-85.829-57.35c-22.948-9.505-46.811-15.659-71.242-18.43V100h30    c5.523,0,10-4.477,10-10V50c0-5.523-4.477-10-10-10h-30V10c0-5.523-4.477-10-10-10h-40c-5.523,0-10,4.477-10,10v30h-30    c-5.523,0-10,4.477-10,10v40c0,5.523,4.477,10,10,10h30v61.708c-24.431,2.771-48.294,8.925-71.242,18.43    c-32.261,13.363-61.138,32.658-85.829,57.35c-1.875,1.875-2.929,4.418-2.929,7.071v44.084c-11.639,4.128-20,15.244-20,28.28    s8.361,24.151,20,28.28v108.52c-11.639,4.128-20,15.244-20,28.28v20c0,5.523,4.477,10,10,10h400c5.523,0,10-4.477,10-10v-20    C466.001,468.965,457.64,457.85,446.001,453.722z M236.001,80h-30V60h30c5.523,0,10-4.477,10-10V20h20v30c0,5.523,4.477,10,10,10    h30v20h-30c-5.523,0-10,4.477-10,10v70.206c-3.326-0.124-6.658-0.206-10-0.206s-6.674,0.082-10,0.206V90    C246.001,84.477,241.524,80,236.001,80z M256.001,180c63.953,0,124.158,24.382,170,68.748v38.174H196.002c-5.523,0-10,4.477-10,10    s4.477,10,10,10h239.999c5.514,0,10,4.486,10,10s-4.486,10-10,10h-360c-5.514,0-10-4.486-10-10s4.486-10,10-10h40.001    c5.523,0,10-4.477,10-10s-4.477-10-10-10H86.001v-38.174C131.843,204.382,192.048,180,256.001,180z M446.001,492.002h-380v-10    c0-5.514,4.486-10,10-10h260.004c5.523,0,10-4.477,10-10s-4.477-10-10-10H86.001v-105.08h340v105.08h-9.995    c-5.523,0-10,4.477-10,10s4.477,10,10,10h19.996c5.514,0,10,4.486,10,10V492.002z" fill="#013893"/>
		<path d="M276.001,369.462h-40c-5.523,0-10,4.477-10,10v40c0,5.523,4.477,10,10,10h40c5.523,0,10-4.477,10-10v-40    C286.001,373.939,281.524,369.462,276.001,369.462z M266.001,409.462h-20v-20h20V409.462z" fill="#013893"/>
		<path d="M176.001,369.462h-40c-5.523,0-10,4.477-10,10v40c0,5.523,4.477,10,10,10h40c5.523,0,10-4.477,10-10v-40    C186.001,373.939,181.524,369.462,176.001,369.462z M166.001,409.462h-20v-20h20V409.462z" fill="#013893"/>
		<path d="M386.002,419.462v-40c0-5.523-4.477-10-10-10h-40c-5.523,0-10,4.477-10,10v40c0,5.523,4.477,10,10,10h40    C381.525,429.462,386.002,424.985,386.002,419.462z M366.002,409.462h-20v-20h20V409.462z" fill="#013893"/>
		<path d="M376.009,452.002h-0.007c-5.523,0-9.996,4.477-9.996,10s4.48,10,10.003,10s10-4.477,10-10    S381.532,452.002,376.009,452.002z" fill="#013893"/>
		<path d="M156.006,306.922c5.523,0,10-4.477,10-10s-4.477-10-10-10h-0.007c-5.523,0-9.996,4.477-9.996,10    S150.483,306.922,156.006,306.922z" fill="#013893"/>
	</g>
</g>















</svg>
