<?xml version="1.0"?>
<svg xmlns="http://www.w3.org/2000/svg" id="Capa_1" enable-background="new 0 0 511.965 511.965" height="512px" viewBox="0 0 511.965 511.965" width="512px"><g><g><g><g><path d="m273.868 447.345c-7.9 0-15.801-3.007-21.815-9.021-3.905-3.905-3.905-10.237 0-14.143 3.905-3.905 10.237-3.905 14.143 0 2.049 2.05 4.774 3.179 7.673 3.179 2.898 0 5.624-1.129 7.673-3.179 3.905-3.905 10.237-3.905 14.143 0 3.905 3.905 3.905 10.237 0 14.143-6.016 6.014-13.916 9.021-21.817 9.021z" fill="#013893"/></g><path d="m496.913 177.864-60.739-47.11v-88.42c0-5.523-4.477-10-10-10h-61.276c-5.523 0-10 4.477-10 10v25.38l-75.095-58.244c-14.025-10.878-33.615-10.876-47.626-.012l-82.815 63.973c-4.371 3.376-5.177 9.656-1.801 14.027 3.375 4.37 9.655 5.177 14.027 1.801l82.831-63.985c6.809-5.28 16.319-5.279 23.126 0l217.11 168.394c8.241 6.392 9.751 18.306 3.366 26.558-3.091 3.996-7.55 6.546-12.556 7.182-5 .632-9.95-.719-13.936-3.811l-199.418-154.673c-3.607-2.798-8.65-2.798-12.258 0l-199.417 154.673c-3.341 2.592-7.332 3.961-11.54 3.961h-.002c-5.896 0-11.345-2.673-14.95-7.332-6.385-8.253-4.875-20.167 3.358-26.552l63.029-48.782c4.368-3.38 5.168-9.661 1.788-14.029-3.38-4.367-9.661-5.168-14.029-1.788l-63.037 48.789c-16.946 13.142-20.053 37.636-6.928 54.601 7.421 9.591 18.635 15.092 30.767 15.093h.003c6.054 0 11.886-1.37 17.194-4.007v85.95h-7.201c-5.01 0-9.247 3.707-9.912 8.672-.67 5.001-1.917 14.31-26.814 14.31-5.523 0-10 4.477-10 10v88.236c0 19.806 11.705 37.78 29.82 45.789l29.901 13.221c1.279.594 2.704.926 4.206.926h379.787c5.523 0 10-4.477 10-10v-257.107c5.321 2.642 11.158 4.015 17.136 4.015 1.649 0 3.309-.104 4.971-.315 10.31-1.309 19.492-6.559 25.856-14.784 13.126-16.964 10.018-41.458-6.926-54.6zm-122.016-125.53h41.276v62.907l-41.276-32.015zm-352.735 398.385v-78.757c21.051-2.328 30.512-12.112 34.472-22.46h18.91c3.96 10.349 13.421 20.132 34.472 22.46v78.757c0 11.894-7.029 22.687-17.908 27.497l-26.02 11.504-26.02-11.504c-10.877-4.81-17.906-15.603-17.906-27.497zm240.808 39.935v-12.876c0-5.523-4.477-10-10-10h-4.177c-27.327 0-47.161-18.213-47.161-43.307l.065-18.879c0-3.167-1.5-6.146-4.044-8.033-2.544-1.886-5.832-2.456-8.861-1.536-1 .303-2.045.457-3.107.457-3.022 0-5.911-1.289-7.926-3.537-2.026-2.261-2.957-5.193-2.62-8.257.532-4.849 4.625-8.841 9.521-9.286 1.419-.13 2.81.008 4.132.41 3.029.921 6.317.351 8.861-1.535s4.044-4.866 4.044-8.033v-16.857c1.475-.608 4.503-1.358 9.674-1.358 12.779 0 29.914-11.607 39.284-18.782.222.195.44.387.653.574 10.889 9.566 33.549 29.473 68.383 29.473 5.955 0 11.224-.476 16.107-1.454 2.604-.523 5.247.122 7.252 1.766 1.117.915 2.99 2.955 2.99 6.333v.306c0 3.167 1.5 6.147 4.044 8.033s5.831 2.455 8.861 1.535c1.321-.402 2.711-.54 4.132-.41 4.894.444 8.987 4.436 9.521 9.284.337 3.064-.593 5.998-2.619 8.259-2.015 2.249-4.904 3.539-7.927 3.539-1.062 0-2.107-.154-3.107-.457-3.028-.919-6.317-.351-8.861 1.536s-4.044 4.866-4.044 8.033l.065 18.879c0 25.094-19.834 43.307-47.161 43.307h-4.177c-5.523 0-10 4.477-10 10v12.876h-21.797zm-107.541-172.889c-10.187-9.712-16.132-23.247-16.132-37.836 0-28.857 23.477-52.334 52.334-52.334 10.724 0 20.909 3.195 29.471 9.048-35.67 10.971-62.31 42.76-65.673 81.122zm19.641 8.23c0-40.504 32.952-73.457 73.456-73.457h50.685c40.504 0 73.457 32.953 73.457 73.457v31.243c-2.463-.909-5.072-1.511-7.781-1.757-.29-.026-.58-.049-.869-.067-1.742-4.342-4.564-8.228-8.29-11.281-6.659-5.458-15.354-7.611-23.858-5.907-3.575.716-7.559 1.064-12.18 1.064-27.297 0-45.438-15.937-55.183-24.499-5.497-4.83-9.129-8.02-14.291-8.02-2.371 0-4.665.842-6.472 2.377-9.321 7.914-25.757 18.877-32.374 18.877-27.216 0-29.463 15.493-29.63 17.26-.029.312-.044.625-.044.939v9.384c-2.297.297-4.516.851-6.627 1.63v-31.243zm129.698 164.659v-3.089c35.354-2.608 61.338-28.858 61.338-63.094v-7.781c0-.16-.004-.319-.011-.478 7.196-.96 13.884-4.458 18.781-9.924 5.347-5.968 8.119-13.828 7.756-21.825.023-.279.036-.56.036-.845v-57.623c0-51.532-41.924-93.457-93.457-93.457h-50.685c-.742 0-1.481.009-2.219.026-13.764-15.923-33.454-24.97-54.675-24.97-39.885 0-72.334 32.449-72.334 72.334 0 25.938 13.595 49.462 35.772 62.429v41.26c0 .285.013.566.036.845-.364 7.998 2.409 15.86 7.759 21.828 4.896 5.464 11.583 8.961 18.778 9.921-.007.159-.011.317-.011.478v7.781c0 34.236 25.985 60.486 61.338 63.094v3.089h-132.826c12.336-9.332 19.872-24.043 19.872-39.936v-88.236c0-5.523-4.477-10-10-10-24.898 0-26.145-9.309-26.814-14.31-.665-4.965-4.902-8.672-9.912-8.672h-7.201v-100.489l179.893-139.529 179.894 139.529v261.644z" fill="#013893"/><path d="m110.462 113.103c1.627 3.905 5.643 6.421 9.87 6.15 4.052-.26 7.614-3.03 8.875-6.887 1.243-3.803.028-8.134-3.039-10.715-3.294-2.773-8.083-3.121-11.748-.864-4.124 2.54-5.786 7.856-3.958 12.316z" fill="#013893"/><path d="m241.944 368.912c-5.523 0-10 4.477-10 10v8.149c0 5.523 4.477 10 10 10s10-4.477 10-10v-8.149c0-5.523-4.477-10-10-10z" fill="#013893"/><path d="m305.793 397.061c5.523 0 10-4.477 10-10v-8.149c0-5.523-4.477-10-10-10s-10 4.477-10 10v8.149c0 5.523 4.477 10 10 10z" fill="#013893"/><path d="m73.842 439.515 20.148-24.733c3.488-4.282 2.845-10.581-1.437-14.069-4.283-3.489-10.581-2.845-14.069 1.437l-13.63 16.732-6.043-5.248c-4.17-3.622-10.486-3.176-14.107.994s-3.176 10.486.994 14.107l13.835 12.015c1.826 1.586 4.157 2.45 6.556 2.45.286 0 .573-.012.86-.037 2.696-.234 5.183-1.55 6.893-3.648z" fill="#013893"/></g></g></g></svg>
