<?xml version="1.0"?>
<svg xmlns="http://www.w3.org/2000/svg" id="Capa_1" enable-background="new 0 0 512 512" height="512px" viewBox="0 0 512 512" width="512px"><g><path d="m421 452h-42.5v-30c0-5.523-4.478-10-10-10h-7.742l32.355-131.523c1.135-.979 2.248-1.989 3.317-3.057 5.51-5.5 9.83-11.92 12.851-19.07 3.13-7.39 4.72-15.25 4.72-23.35s-1.59-15.96-4.72-23.36c-1.709-4.039-3.848-7.839-6.369-11.383-1.38-11.408-4.07-22.587-8.061-33.397-5.87-15.89-14.37-30.55-25.26-43.58-1.9-2.28-4.7-3.59-7.68-3.59-2.33 0-4.61.82-6.4 2.32-4.24 3.54-4.8 9.85-1.27 14.09 10.856 13.007 18.939 27.995 23.924 43.987-.273-.12-.539-.251-.814-.367-7.391-3.13-15.251-4.72-23.351-4.72-8.101 0-15.96 1.59-23.36 4.72-4.007 1.695-7.778 3.814-11.299 6.309-2.979-7.013-7.222-13.32-12.641-18.729-5.42-5.43-11.74-9.68-18.771-12.66-7.28-3.08-15.02-4.64-22.99-4.64h-23.439v-60h14.25c9.66 0 19.29 1.08 28.609 3.2 2.931.67 6.07-.05 8.41-1.9 1.79-1.41 3.05-3.41 3.561-5.63 1.229-5.38-2.15-10.75-7.53-11.97-10.78-2.46-21.9-3.7-33.05-3.7h-14.25v-20c0-5.523-4.477-10-10-10h-2.5v-30c0-5.523-4.477-10-10-10h-40c-5.523 0-10 4.477-10 10v30h-2.5c-5.523 0-10 4.477-10 10v20.245c-1.652-.163-3.32-.245-5-.245-6.75 0-13.3 1.32-19.46 3.93-5.96 2.52-11.3 6.12-15.89 10.72-4.6 4.59-8.2 9.93-10.72 15.89-2.61 6.16-3.93 12.71-3.93 19.46s1.32 13.3 3.93 19.46c2.52 5.96 6.12 11.3 10.72 15.89 4.59 4.6 9.93 8.2 15.89 10.72 6.16 2.61 12.71 3.93 19.46 3.93 1.68 0 3.348-.082 5-.245v45.245c0 5.523 4.477 10 10 10h2.5v36c0 5.523 4.477 10 10 10h40c5.523 0 10-4.477 10-10v-36h2.5c5.523 0 10-4.477 10-10v-45h23.439c10.42 0 20.23 4.07 27.62 11.44 5.839 5.855 9.591 13.225 10.906 21.22-1.823 2.846-3.417 5.839-4.746 8.98-3.13 7.4-4.72 15.26-4.72 23.36 0 5.349.708 10.59 2.081 15.663l-12.693 60.337h-24.387v-10c0-5.523-4.477-10-10-10h-100c-5.523 0-10 4.477-10 10v40c0 5.523 4.477 10 10 10h100c5.523 0 10-4.477 10-10v-10h20.18l-5.35 25.43c-2.261 8.87-10.221 15.07-19.38 15.07-8.4 0-16.3 3.27-22.24 9.21s-9.21 13.84-9.21 22.24v9.05h-79.5c-5.523 0-10 4.477-10 10v30h-42.5c-5.523 0-10 4.477-10 10v40c0 5.523 4.477 10 10 10h330c5.522 0 10-4.477 10-10v-40c0-5.523-4.478-10-10-10zm-244.5-247v-41.703c3.766-2.176 7.234-4.825 10.35-7.948 4.6-4.59 8.2-9.93 10.72-15.89 2.6-6.16 3.93-12.71 3.93-19.46s-1.33-13.3-3.93-19.46c-2.52-5.96-6.12-11.3-10.72-15.89-3.115-3.122-6.584-5.772-10.35-7.948v-16.701h45v145zm12.5-185h20v20h-20zm-67.5 100c.03-16.51 13.49-29.97 30-30 16.51.03 29.97 13.49 30 30-.03 16.51-13.49 29.97-30 30-16.51-.03-29.97-13.49-30-30zm87.5 131h-20v-26h20zm30 80h-80v-20h80zm115-136c10.67 0 20.72 4.17 28.28 11.72 7.55 7.56 11.71 17.61 11.72 28.28-.01 10.67-4.17 20.72-11.72 28.29-7.56 7.55-17.61 11.71-28.28 11.71s-20.72-4.16-28.29-11.71c-7.55-7.57-11.71-17.62-11.71-28.29s4.16-20.72 11.71-28.28c7.57-7.55 17.62-11.72 28.29-11.72zm-111 207.95c.01-6.3 5.15-11.44 11.45-11.45h54.55c5.51 0 10-4.49 10-10s-4.49-10-10-10h-19.921c1.885-3.261 3.305-6.766 4.211-10.45l17.715-84.221c.19.195.371.398.564.591 5.511 5.51 11.931 9.84 19.07 12.86 7.4 3.13 15.26 4.72 23.36 4.72 5.271 0 10.437-.685 15.441-2.018l-29.27 118.988-97.17-.43zm-89.5 29.05h205v20h-205zm257.5 60h-310v-20h310z" fill="#013893"/><circle cx="151.5" cy="120" r="10" fill="#013893"/><circle cx="354" cy="235" r="10" fill="#013893"/><circle cx="328.046" cy="100.38" r="10" fill="#013893"/></g></svg>
