<?xml version="1.0"?>
<svg xmlns="http://www.w3.org/2000/svg" id="Capa_1" enable-background="new 0 0 512 512" height="512px" viewBox="0 0 512 512" width="512px"><g><g><path d="m311.877 120.033c-14.925 14.926-34.77 23.146-55.877 23.146s-40.952-8.22-55.877-23.146c-3.905-3.905-10.237-3.905-14.143 0-3.905 3.905-3.905 10.237 0 14.143 19.305 19.304 44.663 28.957 70.02 28.957s50.715-9.652 70.02-28.957c3.905-3.905 3.905-10.237 0-14.143s-10.237-3.906-14.143 0z" fill="#013893"/><path d="m469.9 312.482h-77.5l53.46-87.881c.146-.239.281-.484.406-.735 17.071-34.235 17.592-72.896 1.684-107.156l6.093-3.333c3.207-1.754 5.202-5.118 5.202-8.773s-1.995-7.02-5.202-8.773l-29.752-16.272-16.272-29.752c-1.754-3.207-5.118-5.202-8.773-5.202s-7.02 1.995-8.773 5.202l-3.281 6c-16.152-7.436-33.567-11.201-51.849-11.201-23.05 0-45.484 6.314-64.875 18.26-8.924 5.497-20.01 5.497-28.934 0-19.391-11.946-41.825-18.26-64.875-18.26-43.245 0-82.647 21.955-105.403 58.729-22.755 36.774-24.819 81.833-5.521 120.534.125.251.261.497.407.736l53.481 87.879h-77.523c-23.214 0-42.1 18.886-42.1 42.1v102.814c0 5.523 4.477 10 10 10h200.794c5.523 0 10-4.477 10-10s-4.477-10-10-10h-190.794v-92.814c0-12.186 9.914-22.1 22.1-22.1h89.694l44.572 73.24c4.625 8.949 13.127 14.963 22.833 16.125 1.218.146 2.426.217 3.622.217 13.113 0 24.647-8.564 28.291-21.446l21.167-63.447c.145-.434.26-.877.344-1.327.348-1.862 1.485-2.806 3.379-2.806s3.031.944 3.379 2.806c.084.45.199.893.344 1.327l21.167 63.448c3.582 12.641 15.199 21.441 28.361 21.441 11.097 0 21.083-6.085 26.171-15.913l44.812-73.664h89.664c12.186 0 22.1 9.914 22.1 22.1v92.814h-190.793c-5.523 0-10 4.477-10 10s4.477 10 10 10h200.793c5.523 0 10-4.477 10-10v-102.817c0-23.214-18.886-42.1-42.1-42.1zm-61.75-220.757c.917 1.678 2.297 3.058 3.975 3.975l16.28 8.904-16.28 8.904c-1.678.917-3.058 2.297-3.975 3.975l-8.904 16.28-8.904-16.28c-.917-1.678-2.297-3.058-3.975-3.975l-16.281-8.904 16.281-8.904c1.678-.917 3.058-2.297 3.975-3.975l8.904-16.28zm-90.011 304.35c-.146.239-.281.484-.406.735-1.614 3.237-4.864 5.249-8.482 5.249-4.266 0-8.026-2.875-9.146-6.99-.049-.182-.104-.362-.164-.54l-21.057-63.119c-2.38-10.857-11.684-18.372-22.884-18.372s-20.504 7.515-22.884 18.372l-21.057 63.119c-.06.178-.114.358-.164.54-1.245 4.577-5.589 7.486-10.32 6.92-3.1-.371-5.981-2.518-7.519-5.603-.125-.251-.261-.496-.407-.736l-110.2-181.077c-15.988-32.373-14.198-69.993 4.813-100.717 19.083-30.84 52.129-49.252 88.396-49.252 19.344 0 38.149 5.287 54.385 15.289 15.395 9.483 34.52 9.483 49.914 0 16.235-10.002 35.042-15.289 54.385-15.289 14.884 0 29.059 2.958 42.224 8.8l-3.366 6.154-29.753 16.272c-3.207 1.754-5.202 5.118-5.202 8.773s1.995 7.02 5.202 8.773l29.753 16.274 16.272 29.752c1.754 3.207 5.118 5.202 8.773 5.202s7.02-1.995 8.773-5.202l16.272-29.752 6.065-3.317c12.697 28.288 12.127 60.034-1.806 88.241z" fill="#013893"/><path d="m265.42 453.57c-1.605-3.852-5.56-6.379-9.736-6.154-4.06.219-7.655 2.911-8.964 6.767-1.338 3.942-.031 8.459 3.245 11.046 3.286 2.594 7.934 2.857 11.492.657 4.121-2.549 5.795-7.846 3.963-12.316z" fill="#013893"/></g></g></svg>
