<?xml version="1.0"?>
<svg xmlns="http://www.w3.org/2000/svg" id="Layer_1" enable-background="new 0 0 512 512" height="512px" viewBox="0 0 512 512" width="512px"><g id="XMLID_1266_"><g id="XMLID_392_"><path id="XMLID_1311_" d="m511.434 252.683c-12.415-35.308-31.714-66.831-56.063-93.285l23.533-12.85c4.847-2.647 6.631-8.722 3.984-13.569-2.648-4.848-8.724-6.631-13.569-3.984l-28.629 15.633c-23.499-21.893-50.772-39.509-80.504-51.933l14.887-25.495c2.785-4.769 1.176-10.893-3.593-13.678-4.768-2.785-10.893-1.176-13.678 3.593l-16.62 28.461c-23.94-7.956-49.206-12.639-75.182-13.598v-30.19c0-5.523-4.477-10-10-10s-10 4.477-10 10v30.19c-25.976.959-51.242 5.642-75.182 13.598l-16.62-28.461c-2.785-4.77-8.911-6.376-13.678-3.593-4.77 2.785-6.378 8.909-3.593 13.678l14.886 25.493c-29.731 12.424-57.005 30.04-80.504 51.933l-28.629-15.633c-4.847-2.646-10.923-.863-13.569 3.984-2.647 4.847-.863 10.922 3.984 13.569l23.534 12.85c-24.349 26.454-43.648 57.978-56.063 93.285-.755 2.147-.755 4.488 0 6.635 12.415 35.308 31.714 66.831 56.063 93.285l-23.534 12.85c-4.847 2.647-6.631 8.722-3.984 13.569 1.816 3.326 5.246 5.209 8.786 5.209 1.619 0 3.263-.395 4.784-1.225l28.629-15.633c23.499 21.894 50.772 39.509 80.504 51.933l-14.887 25.496c-2.785 4.769-1.176 10.893 3.593 13.678 1.585.926 3.32 1.366 5.033 1.366 3.438 0 6.786-1.775 8.645-4.959l16.62-28.461c23.94 7.956 49.206 12.639 75.182 13.598v30.19c0 5.523 4.477 10 10 10s10-4.477 10-10v-30.19c25.976-.958 51.242-5.642 75.182-13.598l16.62 28.461c1.859 3.184 5.206 4.959 8.645 4.959 1.712 0 3.448-.44 5.033-1.366 4.77-2.785 6.378-8.909 3.593-13.678l-14.886-25.493c29.731-12.424 57.005-30.04 80.504-51.933l28.629 15.633c1.521.831 3.164 1.225 4.784 1.225 3.54 0 6.97-1.884 8.786-5.209 2.647-4.847.863-10.922-3.984-13.569l-23.533-12.85c24.349-26.454 43.647-57.978 56.063-93.285.753-2.148.753-4.489-.002-6.636zm-255.434 167.53c-105.088 0-199.226-65.837-235.374-164.212 36.148-98.376 130.285-164.213 235.374-164.213s199.227 65.837 235.374 164.212c-36.148 98.375-130.285 164.213-235.374 164.213z" fill="#013893"/><path id="XMLID_1312_" d="m384.745 290.977c-5.207-1.845-10.921.883-12.764 6.088-17.353 49.008-63.962 81.935-115.981 81.935-67.822 0-123-55.178-123-123s55.178-123 123-123c52.072 0 98.697 32.971 116.02 82.044 1.838 5.208 7.552 7.94 12.758 6.101 5.208-1.838 7.939-7.55 6.101-12.758-20.14-57.054-74.344-95.387-134.879-95.387-78.851 0-143 64.149-143 143s64.149 143 143 143c60.474 0 114.659-38.282 134.833-95.259 1.844-5.206-.882-10.921-6.088-12.764z" fill="#013893"/><path id="XMLID_1315_" d="m173 256c0 45.767 37.233 83 83 83s83-37.233 83-83-37.233-83-83-83-83 37.234-83 83zm83 63c-34.738 0-63-28.262-63-63s28.262-63 63-63c4.647 0 9.172.521 13.535 1.48-8.169 6.265-13.45 16.118-13.45 27.185 0 18.886 15.364 34.25 34.25 34.25 11.067 0 20.92-5.281 27.185-13.45.959 4.363 1.48 8.888 1.48 13.535 0 34.738-28.262 63-63 63zm48.585-97.335c0 7.857-6.393 14.25-14.25 14.25s-14.25-6.393-14.25-14.25 6.393-14.25 14.25-14.25 14.25 6.393 14.25 14.25z" fill="#013893"/><path id="XMLID_1317_" d="m389.06 246.06c-2.63 0-5.21 1.07-7.07 2.93s-2.93 4.44-2.93 7.07c0 2.64 1.07 5.21 2.93 7.07 1.86 1.87 4.44 2.93 7.07 2.93s5.21-1.06 7.08-2.93c1.86-1.86 2.92-4.43 2.92-7.07 0-2.63-1.06-5.21-2.92-7.07-1.87-1.86-4.44-2.93-7.08-2.93z" fill="#013893"/></g></g></svg>
