<?xml version="1.0" encoding="iso-8859-1"?>
<!-- Generator: Adobe Illustrator 19.0.0, SVG Export Plug-In . SVG Version: 6.00 Build 0)  -->
<svg xmlns="http://www.w3.org/2000/svg" xmlns:xlink="http://www.w3.org/1999/xlink" version="1.1" id="Capa_1" x="0px" y="0px" viewBox="0 0 512 512" style="enable-background:new 0 0 512 512;" xml:space="preserve" width="512px" height="512px">
<g>
	<g>
		<path d="M283.779,62.661h-17.653V45.009c0-5.522-4.477-10-10-10s-10,4.478-10,10v17.652h-17.653c-5.523,0-10,4.478-10,10    s4.477,10,10,10h17.653v17.653c0,5.522,4.477,10,10,10s10-4.478,10-10V82.66h17.653c5.523,0,10-4.478,10-10    S289.302,62.661,283.779,62.661z" fill="#013893"/>
	</g>
</g>
<g>
	<g>
		<path d="M467.059,364.159c-9.771-13.174-23.233-22.653-38.929-27.411l-77.12-23.384l-0.686-3.357    c-0.528-2.585-2.057-4.856-4.252-6.32l-32.029-21.342c4.882-3.983,9.455-8.384,13.656-13.182    c18.118-20.697,28.095-47.243,28.095-74.75V141.91c0-1.05-0.164-2.062-0.464-3.013c0.131-0.342,0.25-0.689,0.344-1.05    l22.333-85.548c0.992-3.8-0.332-7.827-3.384-10.298C341.17,14.917,299.042,0,256,0s-85.17,14.917-118.624,42.001    c-3.052,2.472-4.375,6.499-3.383,10.299l22.333,85.548c0.094,0.36,0.214,0.708,0.344,1.05c-0.3,0.951-0.464,1.963-0.464,3.013    v52.504c0,27.506,9.978,54.053,28.095,74.75c4.2,4.798,8.774,9.198,13.656,13.182l-32.029,21.342    c-1.602,1.068-2.843,2.569-3.605,4.304L81.28,335.775c-30.669,10.515-51.276,39.362-51.276,71.785V502c0,5.522,4.477,10,10,10    h282.495c5.523,0,10-4.478,10-10s-4.477-10-10-10h-45.018l65.917-92.863l8.651,6.403c1.763,1.305,3.854,1.962,5.95,1.962    c1.864,0,3.732-0.521,5.376-1.568c3.492-2.227,5.25-6.376,4.421-10.434l-12.232-59.858l66.763,20.244    c23.729,7.195,39.67,28.687,39.67,53.482V492h-55.999c-5.523,0-10,4.478-10,10c0,5.522,4.477,10,10,10h65.999    c5.523,0,10-4.478,10-10v-92.632C481.996,392.966,476.831,377.333,467.059,364.159z M155.008,53.617    c59.502-44.511,142.485-44.51,201.985,0l-18.719,71.705h-42.586c-0.004,0-0.008,0-0.012,0H173.726L155.008,53.617z     M335.793,145.321v25.411c-13.5-3.51-26.391-9.437-37.791-17.45l-1.59-1.117c1.654-2.21,3.225-4.496,4.723-6.844H335.793z     M176.206,145.321h100.033c-15.825,18.205-38.354,29.463-63.029,30.911l-37.004,2.17V145.321z M176.299,198.431l38.082-2.233    c25.987-1.524,50.028-11.961,68.543-29.067l3.577,2.515c14.764,10.377,31.657,17.775,49.293,21.654v3.117    c0,46.207-34.21,85.728-79.793,92.478C211.744,280.34,178.213,242.893,176.299,198.431z M180.445,318.047l21.556-14.363v45.852    l-32.978,24.409L180.445,318.047z M50.004,492v-84.441c0-23.878,15.176-45.122,37.762-52.865l69.658-23.88L144.205,395.5    c-0.83,4.058,0.929,8.207,4.421,10.434c1.644,1.049,3.512,1.568,5.376,1.568c2.096,0,4.188-0.658,5.95-1.962l10.041-7.432    L236.639,492H50.004z M246,470.636l-59.93-84.428l23.231-17.193L246,427.044V470.636z M222.001,351.68v-54.291    c10.271,4.757,21.274,7.993,32.676,9.515c0.439,0.059,0.881,0.088,1.323,0.088s0.884-0.029,1.323-0.088    c11.403-1.522,22.405-4.758,32.676-9.515v54.291L256,405.44L222.001,351.68z M266,473.624v-46.579l36.699-58.029l24.621,18.222    L266,473.624z M309.999,349.536v-45.852l21.556,14.363l11.423,55.898L309.999,349.536z" fill="#013893"/>
	</g>
</g>
<g>
	<g>
		<path d="M370.068,494.93c-1.86-1.86-4.44-2.93-7.07-2.93s-5.21,1.069-7.07,2.93c-1.86,1.86-2.93,4.44-2.93,7.07    s1.07,5.21,2.93,7.069c1.86,1.86,4.44,2.931,7.07,2.931s5.21-1.07,7.07-2.931c1.86-1.859,2.93-4.439,2.93-7.069    S371.928,496.79,370.068,494.93z" fill="#013893"/>
	</g>
</g>
<g>
</g>
<g>
</g>
<g>
</g>
<g>
</g>
<g>
</g>
<g>
</g>
<g>
</g>
<g>
</g>
<g>
</g>
<g>
</g>
<g>
</g>
<g>
</g>
<g>
</g>
<g>
</g>
<g>
</g>
</svg>
