<?xml version="1.0" encoding="iso-8859-1"?>
<!-- Generator: Adobe Illustrator 21.0.0, SVG Export Plug-In . SVG Version: 6.00 Build 0)  -->
<svg xmlns="http://www.w3.org/2000/svg" xmlns:xlink="http://www.w3.org/1999/xlink" version="1.1" id="Capa_1" x="0px" y="0px" viewBox="0 0 512.001 512.001" style="enable-background:new 0 0 512.001 512.001;" xml:space="preserve" width="512px" height="512px">
<g>
	<g>
		<path d="M172.498,153.92h0.007c5.523,0,9.996-4.477,9.996-10s-4.48-10-10.003-10s-10,4.477-10,10S166.975,153.92,172.498,153.92z" fill="#013893"/>
		<path d="M239.498,153.92h0.007c5.523,0,9.996-4.477,9.996-10s-4.48-10-10.003-10s-10,4.477-10,10S233.975,153.92,239.498,153.92z" fill="#013893"/>
		<path d="M166.002,183.92h80c22.056,0,40-17.944,40-40s-17.944-40-40-40h-80c-22.056,0-40,17.944-40,40    S143.946,183.92,166.002,183.92z M166.002,123.92h80c11.028,0,20,8.972,20,20s-8.972,20-20,20h-80c-11.028,0-20-8.972-20-20    S154.974,123.92,166.002,123.92z" fill="#013893"/>
		<path d="M399.194,398.188l-14.545-6.025c-1.401-0.581-2.499-1.687-3.09-3.115c-0.591-1.428-0.598-2.986-0.017-4.388    s1.687-2.499,3.115-3.091c1.428-0.591,2.986-0.599,4.388-0.017l7.272,3.012c5.103,2.114,10.952-0.31,13.065-5.412    s-0.31-10.952-5.412-13.065l-5.876-2.434v-0.832c0-5.523-4.477-10-10-10c-5.471,0-9.909,4.395-9.992,9.846    c-0.368,0.134-0.735,0.274-1.1,0.425c-6.364,2.636-11.314,7.578-13.938,13.914c-2.626,6.337-2.619,13.332,0.017,19.696    c2.636,6.364,7.578,11.314,13.914,13.938l14.545,6.025c2.876,1.191,4.299,4.628,3.108,7.503c-1.191,2.876-4.628,4.301-7.503,3.109    l-7.272-3.013c-5.1-2.114-10.952,0.309-13.065,5.411c-2.114,5.103,0.309,10.952,5.411,13.066l5.876,2.435v0.832    c0,5.523,4.477,10,10,10c5.472,0,9.911-4.397,9.992-9.85c6.569-2.378,12.161-7.388,15.039-14.335    C418.557,418.708,412.307,403.62,399.194,398.188z" fill="#013893"/>
		<path d="M467.937,342.689c-9.918-18.163-23.956-31.133-41.44-38.548l11.51-43.242c0.71-2.668,0.286-5.511-1.173-7.855    c-1.458-2.344-3.822-3.981-6.529-4.522c-34.81-6.962-60.885-4.88-83.876-1.593c-2.968,0.424-5.589,2.158-7.141,4.723    c-1.552,2.565-1.871,5.692-0.869,8.518l9.833,27.737c-5.972-3.272-12.727-5.792-20.094-7.419l-78.656-17.371v-8.663    c37.1-16.668,63.001-53.967,63.001-97.204V106.5c0-58.724-47.776-106.5-106.5-106.5c-12.804,0-25.356,2.283-37.308,6.786    c-5.168,1.947-7.779,7.715-5.833,12.883c1.947,5.168,7.717,7.78,12.883,5.833c9.69-3.65,19.87-5.501,30.257-5.501    c47.696,0,86.5,38.804,86.5,86.5v50.749c0,36.913-23.244,68.493-55.861,80.889c-0.421,0.125-0.828,0.28-1.224,0.458    c-9.187,3.332-19.092,5.153-29.415,5.153c-10.324,0-20.23-1.821-29.418-5.154c-0.394-0.177-0.8-0.331-1.22-0.456    c-32.619-12.396-55.863-43.977-55.863-80.89V106.5c0-10.391,1.852-20.572,5.504-30.263c1.948-5.168-0.663-10.937-5.831-12.884    c-5.167-1.946-10.936,0.662-12.884,5.831c-4.505,11.953-6.79,24.508-6.79,37.316v50.749c0,43.237,25.901,80.536,63,97.204v8.663    l-78.658,17.371c-28.252,6.24-46.128,24.586-47.819,49.076l-10,144.853c-0.191,2.765,0.774,5.486,2.666,7.512    c1.892,2.026,4.539,3.177,7.311,3.177h59.999c0.005,0,0.009,0,0.014,0c0.003,0,0.007,0,0.01,0h102.983c5.523,0,10-4.477,10-10    s-4.477-10-10-10h-92.288l3.761-54.369c0.381-5.509-3.776-10.285-9.286-10.666c-5.504-0.38-10.285,3.777-10.666,9.286    l-3.856,55.749H46.715l9.263-134.164c1.507-21.829,23.006-28.898,32.18-30.924l76.302-16.851    c5.514,17.7,22.052,30.586,41.543,30.586c19.491,0,36.029-12.886,41.543-30.586l76.3,16.851    c7.189,1.588,13.467,4.219,18.506,7.678c-14.101,7.713-25.61,19.451-34.098,34.996c-14.93,27.342-18.064,61.788-18.064,85.87    c0,13.753,2.421,25.97,7.062,36.545h-18.244c-5.523,0-10,4.477-10,10s4.477,10,10,10h31.482    c16.615,17.476,42.999,26.897,77.606,26.897c62.22,0,97.906-30.414,97.906-83.442    C486.001,404.477,482.867,370.031,467.937,342.689z M206.002,293.75c-12.958,0-23.5-10.542-23.5-23.5v-9.12    c7.563,1.71,15.428,2.618,23.5,2.618c8.073,0,15.936-0.908,23.5-2.618v9.12C229.502,283.208,218.96,293.75,206.002,293.75z     M415.883,266.269l-8.574,32.209c-6.104-1.096-12.515-1.651-19.214-1.651c-5.213,0-10.247,0.346-15.102,1.011l-11.573-32.645    C378.629,263.357,395.62,263.145,415.883,266.269z M444.354,477.417c-13.058,9.542-32.512,14.584-56.259,14.584    s-43.202-5.043-56.259-14.584c-14.364-10.495-21.647-26.934-21.647-48.858c0-50.972,13.516-111.732,77.906-111.732    s77.906,60.761,77.906,111.732C466.001,450.483,458.718,466.922,444.354,477.417z" fill="#013893"/>
		<path d="M239.01,465.104h-0.008c-5.523,0-9.996,4.477-9.996,10s4.481,10,10.004,10s10-4.477,10-10S244.533,465.104,239.01,465.104    z" fill="#013893"/>
		<path d="M137.771,48.26c2.401,0,4.811-0.859,6.727-2.602c4.086-3.715,4.388-10.04,0.673-14.126    c-3.715-4.087-10.04-4.388-14.126-0.673l-0.005,0.005c-4.086,3.715-4.385,10.037-0.67,14.124    C132.342,47.159,135.051,48.26,137.771,48.26z" fill="#013893"/>
	</g>
</g>















</svg>
