<?xml version="1.0"?>
<svg xmlns="http://www.w3.org/2000/svg" id="Capa_1" enable-background="new 0 0 512 512" height="512px" viewBox="0 0 512 512" width="512px"><g id="XMLID_1483_"><g id="XMLID_28_"><path id="XMLID_46_" d="m502 85.413h-140.014v-7.931c0-22.053-17.942-39.995-39.995-39.995-7.281 0-14.108 1.966-19.995 5.379v-2.831c0-22.053-17.942-39.995-39.995-39.995s-39.995 17.942-39.995 39.995v2.831c-5.887-3.414-12.714-5.379-19.996-5.379-22.053 0-39.995 17.942-39.995 39.995v7.931h-152.015c-5.523 0-10 4.477-10 10v264c0 5.523 4.477 10 10 10h80.097c1.099 26.928 14.915 51.09 36.277 65.867-.238.854-.374 1.751-.374 2.681v64c0 5.523 4.477 10 10 10h240c5.523 0 10-4.477 10-10v-64c0-.928-.136-1.822-.373-2.675 21.355-14.771 35.177-38.938 36.275-65.873h80.098c5.523 0 10-4.477 10-10v-264c0-5.523-4.477-10-10-10zm-180.009-27.926c11.025 0 19.995 8.97 19.995 19.995v7.931h-39.99v-7.931c0-11.025 8.97-19.995 19.995-19.995zm-79.985-17.452c0-11.025 8.97-19.995 19.995-19.995s19.995 8.97 19.995 19.995v45.377h-39.99zm-59.99 37.447c0-11.025 8.97-19.995 19.995-19.995s19.995 8.97 19.995 19.995v7.931h-39.99zm-45.998 132.524c-25.361 0-45.994 20.633-45.994 45.994v18.714c-6.087-4.651-13.237-7.979-21.024-9.526v-75.551c20.229-4.021 36.204-19.995 40.225-40.225h293.551c4.021 20.229 19.995 36.204 40.225 40.225v75.551c-20.229 4.021-36.204 19.995-40.225 40.225h-220.764v-49.413c0-25.361-20.633-45.994-45.994-45.994zm229.982 281.954h-220v-44h220zm126-142.547h-162.667c-5.523 0-10 4.477-10 10s4.477 10 10 10h72.538c-1.478 27.581-20.429 51.222-47.2 58.547h-197.34c-27.911-7.655-47.307-32.983-47.307-62.023v-109.937c0-14.333 11.661-25.994 25.994-25.994s25.994 11.661 25.994 25.994v103.434c0 5.523 4.477 10 10 10h64.654c5.523 0 10-4.477 10-10s-4.477-10-10-10h-54.654v-24.021h229.783c5.523 0 10-4.477 10-10 0-17.206 13.999-31.205 31.205-31.205 5.523 0 10-4.477 10-10v-93.591c0-5.523-4.477-10-10-10-17.206 0-31.205-13.999-31.205-31.205 0-5.523-4.477-10-10-10h-311.59c-5.523 0-10 4.477-10 10 0 17.206-13.999 31.205-31.205 31.205-5.523 0-10 4.477-10 10v93.591c0 5.523 4.477 10 10 10 16.079 0 29.353 12.225 31.024 27.868v37.337h-70.024v-244h472z" fill="#013893"/><path id="XMLID_1666_" d="m284.33 349.41c-2.63 0-5.21 1.07-7.07 2.93s-2.93 4.44-2.93 7.07c0 2.64 1.07 5.21 2.93 7.07 1.86 1.87 4.44 2.93 7.07 2.93 2.64 0 5.21-1.06 7.07-2.93 1.87-1.86 2.93-4.43 2.93-7.07 0-2.63-1.06-5.21-2.93-7.07-1.86-1.86-4.43-2.93-7.07-2.93z" fill="#013893"/><path id="XMLID_1669_" d="m256 276.165c26.882 0 48.752-21.87 48.752-48.752s-21.87-48.751-48.752-48.751-48.752 21.87-48.752 48.751 21.87 48.752 48.752 48.752zm0-77.504c15.854 0 28.752 12.898 28.752 28.751 0 15.854-12.898 28.752-28.752 28.752s-28.752-12.898-28.752-28.752c0-15.853 12.898-28.751 28.752-28.751z" fill="#013893"/></g></g></svg>
