<?xml version="1.0" encoding="UTF-8"?>
<svg width="512px" height="512px" viewBox="0 0 512 512" version="1.1" xmlns="http://www.w3.org/2000/svg" xmlns:xlink="http://www.w3.org/1999/xlink">
    <!-- Generator: Sketch 54.1 (76490) - https://sketchapp.com -->
    <title>017-pharmacy</title>
    <desc>Created with Sketch.</desc>
    <g id="Page-1" stroke="none" stroke-width="1" fill="none" fill-rule="evenodd">
        <g id="017-pharmacy" fill-rule="nonzero">
            <path d="M512,83.99 C512,67.448 498.542,53.99 482,53.99 L398.5,53.99 C392.977,53.99 388.5,58.467 388.5,63.99 C388.5,69.513 392.977,73.99 398.5,73.99 L482,73.99 C487.514,73.99 492,78.476 492,83.99 L492,144.053 L20,144.053 L20,83.99 C20,78.476 24.486,73.99 30,73.99 L154.584,73.99 C160.107,73.99 164.584,69.513 164.584,63.99 C164.584,58.467 160.107,53.99 154.584,53.99 L30,53.99 C13.458,53.99 0,67.448 0,83.99 L0,154.053 C0,154.185 0.015,154.312 0.02,154.443 C0.015,154.573 0,154.701 0,154.833 L0,189.77 C0,206.828 8.862,221.846 22.215,230.492 C22.075,231.158 22,231.847 22,232.554 L22,491.992 L10,491.992 C4.477,491.992 0,496.469 0,501.992 C0,507.515 4.477,511.992 10,511.992 L502,511.992 C507.523,511.992 512,507.515 512,501.992 C512,496.469 507.523,491.992 502,491.992 L490,491.992 L490,232.552 C490,231.845 489.924,231.156 489.785,230.49 C503.138,221.844 512,206.826 512,189.768 L512,154.831 C512,154.699 511.985,154.572 511.98,154.441 C511.985,154.311 512,154.183 512,154.051 L512,83.99 Z M347.999,164.052 L347.999,164.052 L410,164.052 L410,189.768 C410,205.478 397.219,218.259 381.509,218.259 L376.49,218.259 C360.78,218.259 347.999,205.478 347.999,189.768 L347.999,164.052 Z M265.999,164.052 L265.999,164.052 L328,164.052 L328,189.768 C328,205.478 315.219,218.259 299.509,218.259 L294.49,218.259 C278.78,218.259 265.999,205.478 265.999,189.768 L265.999,164.052 Z M183.999,164.052 L183.999,164.052 L246,164.052 L246,189.768 C246,205.478 233.219,218.259 217.509,218.259 L212.49,218.259 C196.78,218.259 183.999,205.478 183.999,189.768 L183.999,164.052 L183.999,164.052 Z M101.999,164.052 L101.999,164.052 L164,164.052 L164,189.768 C164,205.478 151.219,218.259 135.509,218.259 L130.49,218.259 C114.78,218.259 101.999,205.478 101.999,189.768 L101.999,164.052 L101.999,164.052 Z M20,189.768 L20,164.052 L82,164.052 L82,189.768 C82,205.478 69.219,218.259 53.509,218.259 L48.49,218.259 C32.781,218.259 20,205.478 20,189.768 Z M232,491.99 L96,491.99 L96,295.99 L232,295.99 L232,491.99 Z M470,419.99 L312,419.99 L312,295.99 L470,295.99 L470,419.99 Z M470.006,275.99 L470,275.99 L302,275.99 C296.477,275.99 292,280.467 292,285.99 L292,429.99 C292,435.513 296.477,439.99 302,439.99 L470,439.99 L470,491.99 L252,491.99 L252,285.99 C252,280.467 247.523,275.99 242,275.99 L86,275.99 C80.477,275.99 76,280.467 76,285.99 L76,491.99 L42,491.99 L42,237.812 C44.125,238.098 46.289,238.259 48.491,238.259 L53.51,238.259 C69.18,238.259 83.13,230.781 92.001,219.213 C100.871,230.781 114.821,238.259 130.492,238.259 L135.511,238.259 C151.181,238.259 165.131,230.781 174.002,219.213 C182.872,230.781 196.822,238.259 212.493,238.259 L217.512,238.259 C233.182,238.259 247.132,230.781 256.003,219.213 C264.873,230.781 278.823,238.259 294.494,238.259 L299.513,238.259 C315.183,238.259 329.133,230.781 338.004,219.213 C346.874,230.781 360.824,238.259 376.495,238.259 L381.514,238.259 C397.184,238.259 411.134,230.781 420.005,219.213 C428.875,230.781 442.825,238.259 458.496,238.259 L463.515,238.259 C465.717,238.259 467.881,238.098 470.006,237.812 L470.006,275.99 Z M491.999,189.768 C492,205.478 479.219,218.259 463.509,218.259 L458.49,218.259 C442.78,218.259 429.999,205.478 429.999,189.768 L429.999,164.052 L491.999,164.052 L491.999,189.768 Z" id="Shape" fill="#013893"></path>
            <path d="M207.07,386.92 C205.21,385.06 202.63,383.99 200,383.99 C197.37,383.99 194.79,385.06 192.93,386.92 C191.07,388.78 190,391.36 190,393.99 C190,396.62 191.07,399.2 192.93,401.06 C194.79,402.92 197.37,403.99 200,403.99 C202.63,403.99 205.21,402.92 207.07,401.06 C208.93,399.2 210,396.62 210,393.99 C210,391.36 208.93,388.78 207.07,386.92 Z" id="Path" fill="#000000"></path>
            <path d="M306.425,11.565 C291.016,-3.843 265.944,-3.844 250.535,11.565 L205.576,56.524 C198.111,63.988 194,73.913 194,84.469 C194,95.025 198.111,104.95 205.575,112.414 C213.28,120.119 223.4,123.971 233.521,123.971 C243.641,123.971 253.761,120.118 261.466,112.414 L283.938,89.941 C283.94,89.939 283.943,89.937 283.946,89.934 C283.949,89.931 283.95,89.929 283.953,89.926 L306.425,67.454 C313.889,59.991 318,50.066 318,39.51 C318,28.954 313.889,19.03 306.425,11.565 Z M247.323,98.272 C239.713,105.884 227.329,105.883 219.718,98.272 C216.03,94.586 214,89.683 214,84.469 C214,79.255 216.03,74.354 219.718,70.667 L235.126,55.259 L262.731,82.864 L247.323,98.272 Z M292.282,53.313 L276.874,68.721 L249.269,41.116 L264.677,25.707 C268.482,21.901 273.481,19.999 278.48,19.999 C283.479,19.999 288.477,21.902 292.282,25.707 C295.97,29.394 298,34.296 298,39.51 C298,44.724 295.97,49.626 292.282,53.313 Z" id="Shape" fill="#013893"></path>
            <path d="M427.467,347.915 L400.893,347.915 L400.893,321.341 C400.893,315.818 396.416,311.341 390.893,311.341 C385.37,311.341 380.893,315.818 380.893,321.341 L380.893,347.915 L354.319,347.915 C348.796,347.915 344.319,352.392 344.319,357.915 C344.319,363.438 348.796,367.915 354.319,367.915 L380.893,367.915 L380.893,394.489 C380.893,400.012 385.37,404.489 390.893,404.489 C396.416,404.489 400.893,400.012 400.893,394.489 L400.893,367.915 L427.467,367.915 C432.99,367.915 437.467,363.438 437.467,357.915 C437.467,352.392 432.99,347.915 427.467,347.915 Z" id="Path" fill="#013893"></path>
            <path d="M134,323.323 C128.477,323.323 124,327.8 124,333.323 L124,416.656 C124,422.179 128.477,426.656 134,426.656 C139.523,426.656 144,422.179 144,416.656 L144,333.323 C144,327.8 139.523,323.323 134,323.323 Z" id="Path" fill="#000000"></path>
            <path d="M141.07,447.58 C139.21,445.72 136.63,444.66 134,444.66 C131.37,444.66 128.79,445.72 126.93,447.58 C125.07,449.45 124,452.02 124,454.66 C124,457.29 125.07,459.87 126.93,461.73 C128.79,463.59 131.37,464.66 134,464.66 C136.63,464.66 139.21,463.59 141.07,461.73 C142.93,459.86 144,457.29 144,454.66 C144,452.02 142.93,449.45 141.07,447.58 Z" id="Path" fill="#000000"></path>
        </g>
    </g>
</svg>